HIERARCHY
ROOT Hips
{
	OFFSET 0.000000 0.000000 0.000000
	CHANNELS 6 Xposition Yposition Zposition Zrotation Yrotation Xrotation 
	JOINT LHipJoint
	{
		OFFSET 0.000000 0.000000 0.000000
		CHANNELS 3 Zrotation Yrotation Xrotation
		JOINT LeftUpLeg
		{
			OFFSET 1.363060 -1.794630 0.839290
			CHANNELS 3 Zrotation Yrotation Xrotation
			JOINT LeftLeg
			{
				OFFSET 2.448110 -6.726130 0.000000
				CHANNELS 3 Zrotation Yrotation Xrotation
				JOINT LeftFoot
				{
					OFFSET 2.562200 -7.039590 0.000000
					CHANNELS 3 Zrotation Yrotation Xrotation
					JOINT LeftToeBase
					{
						OFFSET 0.157640 -0.433110 2.322550
						CHANNELS 3 Zrotation Yrotation Xrotation
						End Site
						{
							OFFSET 0.000000 0.000000 0.000000
						}
					}
				}
			}
		}
	}
	JOINT RHipJoint
	{
		OFFSET 0.000000 0.000000 0.000000
		CHANNELS 3 Zrotation Yrotation Xrotation
		JOINT RightUpLeg
		{
			OFFSET -1.305520 -1.794630 0.839290
			CHANNELS 3 Zrotation Yrotation Xrotation
			JOINT RightLeg
			{
				OFFSET -2.542530 -6.985550 0.000000
				CHANNELS 3 Zrotation Yrotation Xrotation
				JOINT RightFoot
				{
					OFFSET -2.568260 -7.056230 0.000000
					CHANNELS 3 Zrotation Yrotation Xrotation
					JOINT RightToeBase
					{
						OFFSET -0.164730 -0.452590 2.363150
						CHANNELS 3 Zrotation Yrotation Xrotation
						End Site
						{
							OFFSET 0.000000 0.000000 0.000000
						}
					}
				}
			}
		}
	}
	JOINT LowerBack
	{
		OFFSET 0.000000 0.000000 0.000000
		CHANNELS 3 Zrotation Yrotation Xrotation
		JOINT Spine
		{
			OFFSET 0.028270 2.035590 -0.193380
			CHANNELS 3 Zrotation Yrotation Xrotation
			JOINT Spine1
			{
				OFFSET 0.056720 2.048850 -0.042750
				CHANNELS 3 Zrotation Yrotation Xrotation
				JOINT Neck
				{
					OFFSET 0.000000 0.000000 0.000000
					CHANNELS 3 Zrotation Yrotation Xrotation
					JOINT Neck1
					{
						OFFSET -0.054170 1.746240 0.172020
						CHANNELS 3 Zrotation Yrotation Xrotation
						JOINT Head
						{
							OFFSET 0.104070 1.761360 -0.123970
							CHANNELS 3 Zrotation Yrotation Xrotation
							End Site
							{
								OFFSET 0.000000 0.000000 0.000000
							}
						}
					}
				}
				JOINT LeftShoulder
				{
					OFFSET 0.000000 0.000000 0.000000
					CHANNELS 3 Zrotation Yrotation Xrotation
					JOINT LeftArm
					{
						OFFSET 3.362410 1.200890 -0.311210
						CHANNELS 3 Zrotation Yrotation Xrotation
						JOINT LeftForeArm
						{
							OFFSET 4.983000 -0.000000 -0.000000
							CHANNELS 3 Zrotation Yrotation Xrotation
							JOINT LeftHand
							{
								OFFSET 3.483560 -0.000000 -0.000000
								CHANNELS 3 Zrotation Yrotation Xrotation
								JOINT LeftFingerBase
								{
									OFFSET 0.000000 0.000000 0.000000
									CHANNELS 3 Zrotation Yrotation Xrotation
									JOINT LeftHandIndex1
									{
										OFFSET 0.715260 -0.000000 -0.000000
										CHANNELS 3 Zrotation Yrotation Xrotation
										End Site
										{
											OFFSET 0.000000 0.000000 0.000000
										}
									}
								}
								JOINT LThumb
								{
									OFFSET 0.000000 0.000000 0.000000
									CHANNELS 3 Zrotation Yrotation Xrotation
									End Site
									{
										OFFSET 0.000000 0.000000 0.000000
									}
								}
							}
						}
					}
				}
				JOINT RightShoulder
				{
					OFFSET 0.000000 0.000000 0.000000
					CHANNELS 3 Zrotation Yrotation Xrotation
					JOINT RightArm
					{
						OFFSET -3.136600 1.374050 -0.404650
						CHANNELS 3 Zrotation Yrotation Xrotation
						JOINT RightForeArm
						{
							OFFSET -5.241900 -0.000000 -0.000000
							CHANNELS 3 Zrotation Yrotation Xrotation
							JOINT RightHand
							{
								OFFSET -3.444170 -0.000000 -0.000000
								CHANNELS 3 Zrotation Yrotation Xrotation
								JOINT RightFingerBase
								{
									OFFSET 0.000000 0.000000 0.000000
									CHANNELS 3 Zrotation Yrotation Xrotation
									JOINT RightHandIndex1
									{
										OFFSET -0.622530 -0.000000 -0.000000
										CHANNELS 3 Zrotation Yrotation Xrotation
										End Site
										{
											OFFSET 0.000000 0.000000 0.000000
										}
									}
								}
								JOINT RThumb
								{
									OFFSET 0.000000 0.000000 0.000000
									CHANNELS 3 Zrotation Yrotation Xrotation
									End Site
									{
										OFFSET 0.000000 0.000000 0.000000
									}
								}
							}
						}
					}
				}
			}
		}
	}
}
MOTION
Frames: 4
Frame Time: 0.008333
9.281518 17.652186 0.782721 30.177817 -82.321474 -6.497778 -10.823221 2.774786 2.555349 -7.555796 2.675485 -26.969681 -0.903953 0.803502 26.776639 1.380044 9.520917 12.284290 3.208500 0.000000 -76.200100 10.915838 -2.041990 -0.526182 5.937563 -14.249227 -24.874532 1.197918 -1.735896 28.565029 -0.744119 -3.765701 11.596193 -1.516000 -0.000000 -89.774300 -0.257765 -1.316239 -2.640307 -0.508423 -1.359960 -3.307898 -4.866682 -1.424805 0.241855 3.610677 -4.442268 -3.445207 -2.292483 -0.216840 1.076930 0.000000 0.000000 0.000000 2.377279 0.843315 1.312344 -56.550212 -28.947545 -4.472641 -1.122036 -44.555709 -0.135620 26.360188 -4.927176 -1.252086 -0.282775 0.365694 0.000000 0.000000 0.000000 0.000000 0.000000 0.000000 0.000000 2.779044 -2.605988 0.377542 65.304583 23.768707 -15.024271 0.062694 44.622825 -0.104042 -21.194066 12.770904 -2.495594 0.170512 -0.404204 0.000000 0.000000 0.000000 0.000000 0.000000 0.000000 0.000000 
9.138576 17.937464 0.769888 28.796421 -82.389037 -5.925181 -10.960539 2.908486 2.570074 -6.914868 2.976448 -25.119117 -0.742479 0.753878 24.096206 1.411232 9.414837 17.906490 3.867001 -0.000000 -74.836199 10.992026 -2.233715 -0.657431 5.749027 -15.095195 -22.820809 1.149368 -1.615267 25.224668 -0.641984 -2.723545 17.956168 -1.341800 -0.000001 -89.558200 -0.268909 -1.290259 -2.553758 -0.504069 -1.328699 -3.269453 -4.826573 -1.384399 0.270888 3.697484 -4.553216 -3.034385 -2.248247 -0.219696 1.195054 0.000000 0.000000 0.000000 2.776002 1.062355 1.026548 -55.948831 -29.339824 -4.595302 -0.963162 -47.366701 -0.143746 26.281463 -4.738891 -1.208598 -0.291429 0.384945 0.000000 0.000000 0.000000 0.000000 0.000000 0.000000 0.000000 2.533316 -2.787009 0.170919 64.198013 24.165552 -14.795105 0.007297 46.528003 -0.107448 -21.226505 12.768736 -2.500867 0.170857 -0.413613 0.000000 0.000000 0.000000 0.000000 0.000000 0.000000 0.000000 
8.996458 18.213107 0.756830 27.756375 -82.495517 -5.445223 -11.062117 3.000304 2.644728 -6.364096 2.998538 -23.722595 -0.604046 0.699380 21.814030 1.500459 9.477293 22.646674 4.442100 -0.000000 -72.446100 11.054835 -2.378296 -0.716637 5.600968 -15.712186 -21.300178 1.140701 -1.503059 22.306318 -0.592779 -1.531595 23.399138 -0.850700 0.000000 -88.384800 -0.301707 -1.268364 -2.594284 -0.505274 -1.302708 -3.260726 -4.788553 -1.351180 0.287917 3.804422 -4.676812 -2.702952 -2.208037 -0.221881 1.290999 0.000000 0.000000 0.000000 3.187631 1.325927 0.754587 -55.293865 -29.663765 -4.893321 -0.799031 -50.302198 -0.152695 26.155051 -4.429193 -1.134718 -0.299129 0.405015 0.000000 0.000000 0.000000 0.000000 0.000000 0.000000 0.000000 2.329555 -2.960480 -0.014341 62.996442 24.582574 -14.685615 -0.056935 48.532581 -0.111895 -21.332044 12.745735 -2.511340 0.171593 -0.424592 0.000000 0.000000 0.000000 0.000000 0.000000 0.000000 0.000000 
8.855955 18.477674 0.743769 27.034818 -82.636047 -5.053699 -11.128252 3.054737 2.769352 -5.915908 2.776104 -22.765936 -0.488987 0.640386 19.963276 1.612908 9.737169 26.339157 4.994199 0.000000 -69.446800 11.100652 -2.478962 -0.714905 5.515373 -16.115986 -20.304377 1.170118 -1.400014 19.865717 -0.563533 -0.274981 27.686571 -0.148200 0.000000 -86.641000 -0.346934 -1.250114 -2.744081 -0.509537 -1.281779 -3.278669 -4.751125 -1.324758 0.289795 3.917342 -4.808459 -2.446636 -2.171351 -0.223424 1.366606 0.000000 0.000000 0.000000 3.599307 1.616445 0.498372 -54.571421 -29.917776 -5.391003 -0.635012 -53.355041 -0.162397 26.000495 -3.995232 -1.031349 -0.305876 0.425447 0.000000 0.000000 0.000000 0.000000 0.000000 0.000000 0.000000 2.151187 -3.123296 -0.178709 61.705638 25.021049 -14.725153 -0.128009 50.632369 -0.117478 -21.509907 12.698940 -2.526114 0.172789 -0.437301 0.000000 0.000000 0.000000 0.000000 0.000000 0.000000 0.000000 
